<svg xmlns="http://www.w3.org/2000/svg" viewBox="0 0 512 96" fill="none">
  <rect width="96" height="96" fill="#00B67A"/>
  <rect x="104" width="96" height="96" fill="#00B67A"/>
  <rect x="208" width="96" height="96" fill="#00B67A"/>
  <rect x="312" width="96" height="96" fill="#00B67A"/>
  <rect x="416" width="96" height="96" fill="#00B67A"/>
  <path d="M48 16l10.4 32H92L64.8 64l10.4 32L48 78.4 20.8 96l10.4-32L4 48h33.6z" fill="#fff"/>
  <path d="M152 16l10.4 32H196l-27.2 16 10.4 32L152 78.4 124.8 96l10.4-32L108 48h33.6z" fill="#fff"/>
  <path d="M256 16l10.4 32H300l-27.2 16 10.4 32L256 78.4 228.8 96l10.4-32L212 48h33.6z" fill="#fff"/>
  <path d="M360 16l10.4 32H404l-27.2 16 10.4 32L360 78.4 332.8 96l10.4-32L316 48h33.6z" fill="#fff"/>
  <path d="M464 16l10.4 32H508l-27.2 16 10.4 32L464 78.4 436.8 96l10.4-32L420 48h33.6z" fill="#fff"/>
</svg>
